M48
; DRILL file KiCad 10.0.1 date 2026-07-06T22:50:11
; FORMAT={-:-/ absolute / metric / decimal}
; #@! TF.CreationDate,2026-07-06T22:50:11+05:30
; #@! TF.GenerationSoftware,Kicad,Pcbnew,10.0.1
; #@! TF.FileFunction,Plated,1,2,PTH
FMAT,2
METRIC
; #@! TA.AperFunction,Plated,PTH,ViaDrill
T1C0.200
; #@! TA.AperFunction,Plated,PTH,ComponentDrill
T2C0.200
; #@! TA.AperFunction,Plated,PTH,ViaDrill
T3C0.300
; #@! TA.AperFunction,Plated,PTH,ComponentDrill
T4C0.500
; #@! TA.AperFunction,Plated,PTH,ComponentDrill
T5C0.750
; #@! TA.AperFunction,Plated,PTH,ComponentDrill
T6C0.800
; #@! TA.AperFunction,Plated,PTH,ComponentDrill
T7C0.900
; #@! TA.AperFunction,Plated,PTH,ComponentDrill
T8C0.990
; #@! TA.AperFunction,Plated,PTH,ComponentDrill
T9C1.300
; #@! TA.AperFunction,Plated,PTH,ComponentDrill
T10C1.500
; #@! TA.AperFunction,Plated,PTH,ViaDrill
T11C3.500
%
G90
G05
T1
X130.9Y-106.584
X131.05Y-127.434
X131.688Y-136.021
X131.688Y-139.021
X134.3Y-129.184
X134.45Y-108.4
X138.1Y-56.684
X138.188Y-130.921
X138.998Y-60.484
X138.998Y-66.784
X138.998Y-72.984
X138.998Y-79.284
X138.998Y-85.584
X138.998Y-91.784
X138.998Y-98.084
X138.998Y-104.284
X140.5Y-117.484
X144.7Y-122.721
X145.0Y-92.384
X145.6Y-137.884
X145.8Y-117.684
X146.404Y-111.987
X146.482Y-81.48
X146.562Y-90.621
X146.562Y-100.471
X146.775Y-96.221
X147.3Y-135.984
X148.287Y-90.621
X148.287Y-100.484
X148.422Y-58.7
X149.135Y-128.609
X149.31Y-81.48
X149.6Y-135.984
X149.7Y-142.709
X150.405Y-133.559
X151.25Y-58.7
X151.8Y-101.084
X152.0Y-81.47
X152.137Y-70.146
X152.35Y-97.434
X152.5Y-128.0
X152.657Y-75.734
X152.85Y-96.9
X152.987Y-70.146
X154.078Y-58.7
X154.177Y-128.071
X154.285Y-133.559
X154.46Y-101.09
X155.07Y-81.46
X155.8Y-70.146
X155.97Y-101.07
X156.692Y-101.07
X156.838Y-75.8
X156.906Y-58.7
X157.271Y-127.796
X157.28Y-137.804
X157.4Y-84.896
X157.405Y-101.07
X158.1Y-101.07
X158.12Y-81.47
X159.733Y-58.7
X159.838Y-90.584
X160.3Y-94.721
X160.32Y-137.804
X160.7Y-98.784
X160.7Y-115.884
X161.487Y-127.171
X161.812Y-115.859
X163.14Y-100.63
X163.35Y-103.969
X163.93Y-122.319
X168.4Y-59.086
X168.4Y-71.086
X168.4Y-83.085
X168.4Y-92.984
X168.4Y-107.084
X177.28Y-57.24
X177.28Y-60.065
X177.28Y-62.889
X177.28Y-65.714
X177.28Y-68.539
X177.28Y-71.364
X177.28Y-74.188
X177.28Y-77.013
X177.28Y-79.838
X177.28Y-82.663
X177.28Y-85.487
X177.28Y-88.312
X177.28Y-91.137
X177.28Y-93.962
X177.28Y-96.786
X177.28Y-99.611
X177.28Y-102.436
X177.28Y-105.261
X177.28Y-108.085
X177.28Y-110.91
X177.28Y-113.735
X177.28Y-133.508
X177.28Y-136.333
T2
X147.3Y-130.384
X147.3Y-131.784
X148.5Y-130.384
X148.5Y-131.784
X149.7Y-130.384
X149.7Y-131.784
T3
X150.8Y-65.626
X153.4Y-65.626
X155.787Y-129.796
X156.2Y-65.626
X157.237Y-125.346
X158.8Y-65.626
T5
X132.85Y-114.634
X134.85Y-114.634
X136.1Y-121.55
X136.1Y-123.55
X136.85Y-114.634
X138.85Y-114.634
X140.85Y-114.634
X142.85Y-114.634
X144.85Y-114.634
X146.85Y-114.634
T6
X145.0Y-61.804
X145.0Y-64.344
X145.0Y-66.884
X145.0Y-69.424
X145.0Y-71.964
X145.0Y-74.504
X145.0Y-77.044
X145.0Y-79.584
X163.034Y-61.804
X163.034Y-64.344
X163.034Y-66.884
X163.034Y-69.424
X163.034Y-71.964
X163.034Y-74.504
X163.034Y-77.044
X163.034Y-79.584
T7
X171.8Y-121.68
X171.8Y-124.68
X171.8Y-127.69
T8
X175.287Y-71.29
X175.287Y-75.79
X175.287Y-83.296
X175.287Y-87.796
X175.287Y-95.302
X175.287Y-99.802
X175.287Y-107.309
X175.287Y-111.809
X175.3Y-59.284
X175.3Y-63.784
T9
X172.797Y-70.04
X172.797Y-77.05
X172.797Y-82.046
X172.797Y-89.056
X172.797Y-94.052
X172.797Y-101.062
X172.797Y-106.059
X172.797Y-113.069
X172.81Y-58.034
X172.81Y-65.044
T10
X171.8Y-118.45
X171.8Y-130.92
T11
X142.2Y-140.184
X147.8Y-84.984
X167.4Y-67.784
X167.4Y-98.884
X167.4Y-140.184
T4
G00X154.48Y-137.634
M15
G01X154.48Y-138.334
M16
G05
G00X154.48Y-141.434
M15
G01X154.48Y-142.134
M16
G05
G00X163.12Y-137.634
M15
G01X163.12Y-138.334
M16
G05
G00X163.12Y-141.434
M15
G01X163.12Y-142.134
M16
G05
M30
