%TF.GenerationSoftware,KiCad,Pcbnew,10.0.1*%
%TF.CreationDate,2026-07-06T22:50:14+05:30*%
%TF.ProjectId,Tack_STM32_V_1,5461636b-5f53-4544-9d33-325f565f312e,rev?*%
%TF.SameCoordinates,Original*%
%TF.FileFunction,Legend,Bot*%
%TF.FilePolarity,Positive*%
%FSLAX46Y46*%
G04 Gerber Fmt 4.6, Leading zero omitted, Abs format (unit mm)*
G04 Created by KiCad (PCBNEW 10.0.1) date 2026-07-06 22:50:14*
%MOMM*%
%LPD*%
G01*
G04 APERTURE LIST*
%ADD10C,0.150000*%
%ADD11C,0.000000*%
%ADD12C,0.120000*%
G04 APERTURE END LIST*
D10*
X158833333Y-63754819D02*
X159166666Y-63278628D01*
X159404761Y-63754819D02*
X159404761Y-62754819D01*
X159404761Y-62754819D02*
X159023809Y-62754819D01*
X159023809Y-62754819D02*
X158928571Y-62802438D01*
X158928571Y-62802438D02*
X158880952Y-62850057D01*
X158880952Y-62850057D02*
X158833333Y-62945295D01*
X158833333Y-62945295D02*
X158833333Y-63088152D01*
X158833333Y-63088152D02*
X158880952Y-63183390D01*
X158880952Y-63183390D02*
X158928571Y-63231009D01*
X158928571Y-63231009D02*
X159023809Y-63278628D01*
X159023809Y-63278628D02*
X159404761Y-63278628D01*
X158404761Y-63754819D02*
X158404761Y-62754819D01*
X157404762Y-62802438D02*
X157500000Y-62754819D01*
X157500000Y-62754819D02*
X157642857Y-62754819D01*
X157642857Y-62754819D02*
X157785714Y-62802438D01*
X157785714Y-62802438D02*
X157880952Y-62897676D01*
X157880952Y-62897676D02*
X157928571Y-62992914D01*
X157928571Y-62992914D02*
X157976190Y-63183390D01*
X157976190Y-63183390D02*
X157976190Y-63326247D01*
X157976190Y-63326247D02*
X157928571Y-63516723D01*
X157928571Y-63516723D02*
X157880952Y-63611961D01*
X157880952Y-63611961D02*
X157785714Y-63707200D01*
X157785714Y-63707200D02*
X157642857Y-63754819D01*
X157642857Y-63754819D02*
X157547619Y-63754819D01*
X157547619Y-63754819D02*
X157404762Y-63707200D01*
X157404762Y-63707200D02*
X157357143Y-63659580D01*
X157357143Y-63659580D02*
X157357143Y-63326247D01*
X157357143Y-63326247D02*
X157547619Y-63326247D01*
X156928571Y-63754819D02*
X156928571Y-62754819D01*
X156928571Y-63231009D02*
X156357143Y-63231009D01*
X156357143Y-63754819D02*
X156357143Y-62754819D01*
X156023809Y-62754819D02*
X155452381Y-62754819D01*
X155738095Y-63754819D02*
X155738095Y-62754819D01*
X153052381Y-63754819D02*
X153528571Y-63754819D01*
X153528571Y-63754819D02*
X153528571Y-62754819D01*
X152719047Y-63231009D02*
X152385714Y-63231009D01*
X152242857Y-63754819D02*
X152719047Y-63754819D01*
X152719047Y-63754819D02*
X152719047Y-62754819D01*
X152719047Y-62754819D02*
X152242857Y-62754819D01*
X151480952Y-63231009D02*
X151814285Y-63231009D01*
X151814285Y-63754819D02*
X151814285Y-62754819D01*
X151814285Y-62754819D02*
X151338095Y-62754819D01*
X151099999Y-62754819D02*
X150528571Y-62754819D01*
X150814285Y-63754819D02*
X150814285Y-62754819D01*
X165044047Y-118889759D02*
X164901190Y-118937378D01*
X164901190Y-118937378D02*
X164853571Y-118984997D01*
X164853571Y-118984997D02*
X164805952Y-119080235D01*
X164805952Y-119080235D02*
X164805952Y-119223092D01*
X164805952Y-119223092D02*
X164853571Y-119318330D01*
X164853571Y-119318330D02*
X164901190Y-119365950D01*
X164901190Y-119365950D02*
X164996428Y-119413569D01*
X164996428Y-119413569D02*
X165377380Y-119413569D01*
X165377380Y-119413569D02*
X165377380Y-118413569D01*
X165377380Y-118413569D02*
X165044047Y-118413569D01*
X165044047Y-118413569D02*
X164948809Y-118461188D01*
X164948809Y-118461188D02*
X164901190Y-118508807D01*
X164901190Y-118508807D02*
X164853571Y-118604045D01*
X164853571Y-118604045D02*
X164853571Y-118699283D01*
X164853571Y-118699283D02*
X164901190Y-118794521D01*
X164901190Y-118794521D02*
X164948809Y-118842140D01*
X164948809Y-118842140D02*
X165044047Y-118889759D01*
X165044047Y-118889759D02*
X165377380Y-118889759D01*
X164520237Y-118413569D02*
X163948809Y-118413569D01*
X164234523Y-119413569D02*
X164234523Y-118413569D01*
X163853571Y-119508807D02*
X163091666Y-119508807D01*
X162901189Y-119127854D02*
X162424999Y-119127854D01*
X162996427Y-119413569D02*
X162663094Y-118413569D01*
X162663094Y-118413569D02*
X162329761Y-119413569D01*
X161996427Y-119413569D02*
X161996427Y-118413569D01*
X161996427Y-118413569D02*
X161758332Y-118413569D01*
X161758332Y-118413569D02*
X161615475Y-118461188D01*
X161615475Y-118461188D02*
X161520237Y-118556426D01*
X161520237Y-118556426D02*
X161472618Y-118651664D01*
X161472618Y-118651664D02*
X161424999Y-118842140D01*
X161424999Y-118842140D02*
X161424999Y-118984997D01*
X161424999Y-118984997D02*
X161472618Y-119175473D01*
X161472618Y-119175473D02*
X161520237Y-119270711D01*
X161520237Y-119270711D02*
X161615475Y-119365950D01*
X161615475Y-119365950D02*
X161758332Y-119413569D01*
X161758332Y-119413569D02*
X161996427Y-119413569D01*
X160424999Y-119318330D02*
X160472618Y-119365950D01*
X160472618Y-119365950D02*
X160615475Y-119413569D01*
X160615475Y-119413569D02*
X160710713Y-119413569D01*
X160710713Y-119413569D02*
X160853570Y-119365950D01*
X160853570Y-119365950D02*
X160948808Y-119270711D01*
X160948808Y-119270711D02*
X160996427Y-119175473D01*
X160996427Y-119175473D02*
X161044046Y-118984997D01*
X161044046Y-118984997D02*
X161044046Y-118842140D01*
X161044046Y-118842140D02*
X160996427Y-118651664D01*
X160996427Y-118651664D02*
X160948808Y-118556426D01*
X160948808Y-118556426D02*
X160853570Y-118461188D01*
X160853570Y-118461188D02*
X160710713Y-118413569D01*
X160710713Y-118413569D02*
X160615475Y-118413569D01*
X160615475Y-118413569D02*
X160472618Y-118461188D01*
X160472618Y-118461188D02*
X160424999Y-118508807D01*
X150473509Y-73519464D02*
X150521128Y-73662321D01*
X150521128Y-73662321D02*
X150568747Y-73709940D01*
X150568747Y-73709940D02*
X150663985Y-73757559D01*
X150663985Y-73757559D02*
X150806842Y-73757559D01*
X150806842Y-73757559D02*
X150902080Y-73709940D01*
X150902080Y-73709940D02*
X150949700Y-73662321D01*
X150949700Y-73662321D02*
X150997319Y-73567083D01*
X150997319Y-73567083D02*
X150997319Y-73186131D01*
X150997319Y-73186131D02*
X149997319Y-73186131D01*
X149997319Y-73186131D02*
X149997319Y-73519464D01*
X149997319Y-73519464D02*
X150044938Y-73614702D01*
X150044938Y-73614702D02*
X150092557Y-73662321D01*
X150092557Y-73662321D02*
X150187795Y-73709940D01*
X150187795Y-73709940D02*
X150283033Y-73709940D01*
X150283033Y-73709940D02*
X150378271Y-73662321D01*
X150378271Y-73662321D02*
X150425890Y-73614702D01*
X150425890Y-73614702D02*
X150473509Y-73519464D01*
X150473509Y-73519464D02*
X150473509Y-73186131D01*
X149997319Y-74376607D02*
X149997319Y-74567083D01*
X149997319Y-74567083D02*
X150044938Y-74662321D01*
X150044938Y-74662321D02*
X150140176Y-74757559D01*
X150140176Y-74757559D02*
X150330652Y-74805178D01*
X150330652Y-74805178D02*
X150663985Y-74805178D01*
X150663985Y-74805178D02*
X150854461Y-74757559D01*
X150854461Y-74757559D02*
X150949700Y-74662321D01*
X150949700Y-74662321D02*
X150997319Y-74567083D01*
X150997319Y-74567083D02*
X150997319Y-74376607D01*
X150997319Y-74376607D02*
X150949700Y-74281369D01*
X150949700Y-74281369D02*
X150854461Y-74186131D01*
X150854461Y-74186131D02*
X150663985Y-74138512D01*
X150663985Y-74138512D02*
X150330652Y-74138512D01*
X150330652Y-74138512D02*
X150140176Y-74186131D01*
X150140176Y-74186131D02*
X150044938Y-74281369D01*
X150044938Y-74281369D02*
X149997319Y-74376607D01*
X149997319Y-75424226D02*
X149997319Y-75614702D01*
X149997319Y-75614702D02*
X150044938Y-75709940D01*
X150044938Y-75709940D02*
X150140176Y-75805178D01*
X150140176Y-75805178D02*
X150330652Y-75852797D01*
X150330652Y-75852797D02*
X150663985Y-75852797D01*
X150663985Y-75852797D02*
X150854461Y-75805178D01*
X150854461Y-75805178D02*
X150949700Y-75709940D01*
X150949700Y-75709940D02*
X150997319Y-75614702D01*
X150997319Y-75614702D02*
X150997319Y-75424226D01*
X150997319Y-75424226D02*
X150949700Y-75328988D01*
X150949700Y-75328988D02*
X150854461Y-75233750D01*
X150854461Y-75233750D02*
X150663985Y-75186131D01*
X150663985Y-75186131D02*
X150330652Y-75186131D01*
X150330652Y-75186131D02*
X150140176Y-75233750D01*
X150140176Y-75233750D02*
X150044938Y-75328988D01*
X150044938Y-75328988D02*
X149997319Y-75424226D01*
X149997319Y-76138512D02*
X149997319Y-76709940D01*
X150997319Y-76424226D02*
X149997319Y-76424226D01*
X151092557Y-76805179D02*
X151092557Y-77567083D01*
X149997319Y-77995655D02*
X149997319Y-78090893D01*
X149997319Y-78090893D02*
X150044938Y-78186131D01*
X150044938Y-78186131D02*
X150092557Y-78233750D01*
X150092557Y-78233750D02*
X150187795Y-78281369D01*
X150187795Y-78281369D02*
X150378271Y-78328988D01*
X150378271Y-78328988D02*
X150616366Y-78328988D01*
X150616366Y-78328988D02*
X150806842Y-78281369D01*
X150806842Y-78281369D02*
X150902080Y-78233750D01*
X150902080Y-78233750D02*
X150949700Y-78186131D01*
X150949700Y-78186131D02*
X150997319Y-78090893D01*
X150997319Y-78090893D02*
X150997319Y-77995655D01*
X150997319Y-77995655D02*
X150949700Y-77900417D01*
X150949700Y-77900417D02*
X150902080Y-77852798D01*
X150902080Y-77852798D02*
X150806842Y-77805179D01*
X150806842Y-77805179D02*
X150616366Y-77757560D01*
X150616366Y-77757560D02*
X150378271Y-77757560D01*
X150378271Y-77757560D02*
X150187795Y-77805179D01*
X150187795Y-77805179D02*
X150092557Y-77852798D01*
X150092557Y-77852798D02*
X150044938Y-77900417D01*
X150044938Y-77900417D02*
X149997319Y-77995655D01*
X158731009Y-73601964D02*
X158778628Y-73744821D01*
X158778628Y-73744821D02*
X158826247Y-73792440D01*
X158826247Y-73792440D02*
X158921485Y-73840059D01*
X158921485Y-73840059D02*
X159064342Y-73840059D01*
X159064342Y-73840059D02*
X159159580Y-73792440D01*
X159159580Y-73792440D02*
X159207200Y-73744821D01*
X159207200Y-73744821D02*
X159254819Y-73649583D01*
X159254819Y-73649583D02*
X159254819Y-73268631D01*
X159254819Y-73268631D02*
X158254819Y-73268631D01*
X158254819Y-73268631D02*
X158254819Y-73601964D01*
X158254819Y-73601964D02*
X158302438Y-73697202D01*
X158302438Y-73697202D02*
X158350057Y-73744821D01*
X158350057Y-73744821D02*
X158445295Y-73792440D01*
X158445295Y-73792440D02*
X158540533Y-73792440D01*
X158540533Y-73792440D02*
X158635771Y-73744821D01*
X158635771Y-73744821D02*
X158683390Y-73697202D01*
X158683390Y-73697202D02*
X158731009Y-73601964D01*
X158731009Y-73601964D02*
X158731009Y-73268631D01*
X158254819Y-74459107D02*
X158254819Y-74649583D01*
X158254819Y-74649583D02*
X158302438Y-74744821D01*
X158302438Y-74744821D02*
X158397676Y-74840059D01*
X158397676Y-74840059D02*
X158588152Y-74887678D01*
X158588152Y-74887678D02*
X158921485Y-74887678D01*
X158921485Y-74887678D02*
X159111961Y-74840059D01*
X159111961Y-74840059D02*
X159207200Y-74744821D01*
X159207200Y-74744821D02*
X159254819Y-74649583D01*
X159254819Y-74649583D02*
X159254819Y-74459107D01*
X159254819Y-74459107D02*
X159207200Y-74363869D01*
X159207200Y-74363869D02*
X159111961Y-74268631D01*
X159111961Y-74268631D02*
X158921485Y-74221012D01*
X158921485Y-74221012D02*
X158588152Y-74221012D01*
X158588152Y-74221012D02*
X158397676Y-74268631D01*
X158397676Y-74268631D02*
X158302438Y-74363869D01*
X158302438Y-74363869D02*
X158254819Y-74459107D01*
X158254819Y-75506726D02*
X158254819Y-75697202D01*
X158254819Y-75697202D02*
X158302438Y-75792440D01*
X158302438Y-75792440D02*
X158397676Y-75887678D01*
X158397676Y-75887678D02*
X158588152Y-75935297D01*
X158588152Y-75935297D02*
X158921485Y-75935297D01*
X158921485Y-75935297D02*
X159111961Y-75887678D01*
X159111961Y-75887678D02*
X159207200Y-75792440D01*
X159207200Y-75792440D02*
X159254819Y-75697202D01*
X159254819Y-75697202D02*
X159254819Y-75506726D01*
X159254819Y-75506726D02*
X159207200Y-75411488D01*
X159207200Y-75411488D02*
X159111961Y-75316250D01*
X159111961Y-75316250D02*
X158921485Y-75268631D01*
X158921485Y-75268631D02*
X158588152Y-75268631D01*
X158588152Y-75268631D02*
X158397676Y-75316250D01*
X158397676Y-75316250D02*
X158302438Y-75411488D01*
X158302438Y-75411488D02*
X158254819Y-75506726D01*
X158254819Y-76221012D02*
X158254819Y-76792440D01*
X159254819Y-76506726D02*
X158254819Y-76506726D01*
X159350057Y-76887679D02*
X159350057Y-77649583D01*
X159254819Y-78411488D02*
X159254819Y-77840060D01*
X159254819Y-78125774D02*
X158254819Y-78125774D01*
X158254819Y-78125774D02*
X158397676Y-78030536D01*
X158397676Y-78030536D02*
X158492914Y-77935298D01*
X158492914Y-77935298D02*
X158540533Y-77840060D01*
D11*
%TO.C,REF\u002A\u002A*%
G36*
X158245277Y-91676237D02*
G01*
X158245277Y-91746792D01*
X157663194Y-91746792D01*
X157081111Y-91746792D01*
X157081111Y-91676237D01*
X157081111Y-91605681D01*
X157663194Y-91605681D01*
X158245277Y-91605681D01*
X158245277Y-91676237D01*
G37*
G36*
X158245277Y-102559431D02*
G01*
X158245277Y-102629987D01*
X157663194Y-102629987D01*
X157081111Y-102629987D01*
X157081111Y-102559431D01*
X157081111Y-102488876D01*
X157663194Y-102488876D01*
X158245277Y-102488876D01*
X158245277Y-102559431D01*
G37*
G36*
X158245277Y-115215334D02*
G01*
X158245277Y-115488737D01*
X158183541Y-115488737D01*
X158121805Y-115488737D01*
X158121805Y-115285889D01*
X158121805Y-115083042D01*
X157601458Y-115083042D01*
X157081111Y-115083042D01*
X157081111Y-115012487D01*
X157081111Y-114941931D01*
X157663194Y-114941931D01*
X158245277Y-114941931D01*
X158245277Y-115215334D01*
G37*
G36*
X157186944Y-101148320D02*
G01*
X157186944Y-101307070D01*
X157716111Y-101307070D01*
X158245277Y-101307070D01*
X158245277Y-101377626D01*
X158245277Y-101448181D01*
X157716111Y-101448181D01*
X157186944Y-101448181D01*
X157186944Y-101615751D01*
X157186944Y-101783320D01*
X157134027Y-101783320D01*
X157081111Y-101783320D01*
X157081111Y-101386445D01*
X157081111Y-100989570D01*
X157134027Y-100989570D01*
X157186944Y-100989570D01*
X157186944Y-101148320D01*
G37*
G36*
X157186944Y-112640056D02*
G01*
X157186944Y-112807626D01*
X157716111Y-112807626D01*
X158245277Y-112807626D01*
X158245277Y-112878181D01*
X158245277Y-112948737D01*
X157716111Y-112948737D01*
X157186944Y-112948737D01*
X157186944Y-113107487D01*
X157186944Y-113266237D01*
X157134027Y-113266237D01*
X157081111Y-113266237D01*
X157081111Y-112869362D01*
X157081111Y-112472487D01*
X157134027Y-112472487D01*
X157186944Y-112472487D01*
X157186944Y-112640056D01*
G37*
G36*
X157186944Y-116264848D02*
G01*
X157186944Y-116423598D01*
X157716111Y-116423598D01*
X158245277Y-116423598D01*
X158245277Y-116494153D01*
X158245277Y-116564709D01*
X157716111Y-116564709D01*
X157186944Y-116564709D01*
X157186944Y-116723459D01*
X157186944Y-116882209D01*
X157134027Y-116882209D01*
X157081111Y-116882209D01*
X157081111Y-116494153D01*
X157081111Y-116106098D01*
X157134027Y-116106098D01*
X157186944Y-116106098D01*
X157186944Y-116264848D01*
G37*
G36*
X155140833Y-97294223D02*
G01*
X155140833Y-98326098D01*
X154946983Y-98326098D01*
X154753133Y-98326098D01*
X154748545Y-97519119D01*
X154743958Y-96712139D01*
X154148645Y-96707495D01*
X153553333Y-96702851D01*
X153553333Y-97408641D01*
X153553333Y-98114431D01*
X153359305Y-98114431D01*
X153165277Y-98114431D01*
X153165277Y-97408876D01*
X153165277Y-96703320D01*
X152644930Y-96703320D01*
X152124583Y-96703320D01*
X152124583Y-97488251D01*
X152124583Y-98273181D01*
X151939374Y-98273181D01*
X151754166Y-98273181D01*
X151754166Y-97267764D01*
X151754166Y-96262348D01*
X153447499Y-96262348D01*
X155140833Y-96262348D01*
X155140833Y-97294223D01*
G37*
G36*
X158245277Y-105328449D02*
G01*
X158245277Y-105398716D01*
X157774357Y-105403414D01*
X157303437Y-105408112D01*
X157774223Y-105716792D01*
X158245008Y-106025473D01*
X158245143Y-106091619D01*
X158245277Y-106157764D01*
X157654374Y-106157764D01*
X157063472Y-106157764D01*
X157063472Y-106096028D01*
X157063472Y-106034292D01*
X157530902Y-106034292D01*
X157655148Y-106033815D01*
X157766954Y-106032469D01*
X157861734Y-106030384D01*
X157934906Y-106027691D01*
X157981885Y-106024518D01*
X157998093Y-106021063D01*
X157983860Y-106008468D01*
X157943623Y-105978973D01*
X157880898Y-105935000D01*
X157799198Y-105878968D01*
X157702038Y-105813298D01*
X157592932Y-105740410D01*
X157530667Y-105699153D01*
X157063480Y-105390473D01*
X157063476Y-105324327D01*
X157063472Y-105258181D01*
X157654374Y-105258181D01*
X158245277Y-105258181D01*
X158245277Y-105328449D01*
G37*
G36*
X158245277Y-94295612D02*
G01*
X158245277Y-94357348D01*
X157777847Y-94357348D01*
X157653586Y-94357825D01*
X157541753Y-94359172D01*
X157446934Y-94361256D01*
X157373717Y-94363950D01*
X157326689Y-94367123D01*
X157310430Y-94370577D01*
X157324614Y-94383162D01*
X157364815Y-94412628D01*
X157427520Y-94456557D01*
X157509215Y-94512532D01*
X157606387Y-94578134D01*
X157715522Y-94650947D01*
X157777861Y-94692194D01*
X158245277Y-95000582D01*
X158245277Y-95067020D01*
X158245277Y-95133459D01*
X157654374Y-95133459D01*
X157063472Y-95133459D01*
X157063472Y-95063191D01*
X157063472Y-94992924D01*
X157533573Y-94988226D01*
X158003675Y-94983528D01*
X157533663Y-94674848D01*
X157063650Y-94366167D01*
X157063561Y-94300021D01*
X157063472Y-94233876D01*
X157654374Y-94233876D01*
X158245277Y-94233876D01*
X158245277Y-94295612D01*
G37*
G36*
X158245277Y-92593459D02*
G01*
X158245277Y-92664014D01*
X157777847Y-92664014D01*
X157653657Y-92664492D01*
X157541960Y-92665837D01*
X157447327Y-92667921D01*
X157374332Y-92670614D01*
X157327547Y-92673785D01*
X157311535Y-92677244D01*
X157326008Y-92689813D01*
X157366508Y-92719220D01*
X157429499Y-92763046D01*
X157511448Y-92818874D01*
X157608821Y-92884287D01*
X157718083Y-92956866D01*
X157778965Y-92996992D01*
X158245277Y-93303511D01*
X158245277Y-93371818D01*
X158245277Y-93440126D01*
X157654374Y-93440126D01*
X157063472Y-93440126D01*
X157063472Y-93369858D01*
X157063472Y-93299591D01*
X157535312Y-93294893D01*
X158007152Y-93290195D01*
X157535312Y-92977838D01*
X157063472Y-92665482D01*
X157063472Y-92594193D01*
X157063472Y-92522903D01*
X157654374Y-92522903D01*
X158245277Y-92522903D01*
X158245277Y-92593459D01*
G37*
G36*
X158245277Y-109482695D02*
G01*
X158245277Y-109544431D01*
X158000831Y-109544431D01*
X157756384Y-109544431D01*
X157747247Y-109737206D01*
X157740774Y-109836682D01*
X157731219Y-109910167D01*
X157716949Y-109966919D01*
X157698958Y-110010858D01*
X157640993Y-110093700D01*
X157561176Y-110149165D01*
X157460788Y-110176504D01*
X157412999Y-110179227D01*
X157409414Y-110179431D01*
X157311830Y-110169952D01*
X157235116Y-110139021D01*
X157174557Y-110088262D01*
X157139340Y-110044541D01*
X157113906Y-109996011D01*
X157096818Y-109936212D01*
X157086637Y-109858683D01*
X157081925Y-109756962D01*
X157081511Y-109712001D01*
X157191047Y-109712001D01*
X157194041Y-109830824D01*
X157212321Y-109919846D01*
X157247832Y-109981923D01*
X157302519Y-110019911D01*
X157378325Y-110036666D01*
X157412999Y-110038060D01*
X157491667Y-110030062D01*
X157550139Y-110003235D01*
X157590639Y-109954245D01*
X157615390Y-109879758D01*
X157626614Y-109776440D01*
X157627850Y-109715867D01*
X157627916Y-109543345D01*
X157411840Y-109548298D01*
X157195763Y-109553251D01*
X157191047Y-109712001D01*
X157081511Y-109712001D01*
X157081111Y-109668470D01*
X157081111Y-109420959D01*
X157663194Y-109420959D01*
X158245277Y-109420959D01*
X158245277Y-109482695D01*
G37*
G36*
X157208992Y-110862411D02*
G01*
X157260421Y-110881554D01*
X157338850Y-110910938D01*
X157438290Y-110948310D01*
X157552749Y-110991416D01*
X157676239Y-111038004D01*
X157786666Y-111079729D01*
X158236458Y-111249814D01*
X158241841Y-111332164D01*
X158240846Y-111392754D01*
X158227622Y-111421510D01*
X158224202Y-111423305D01*
X158202711Y-111431446D01*
X158152237Y-111450532D01*
X158076802Y-111479044D01*
X157980425Y-111515463D01*
X157867127Y-111558269D01*
X157740928Y-111605944D01*
X157645555Y-111641970D01*
X157089930Y-111851842D01*
X157084277Y-111798888D01*
X157082728Y-111753862D01*
X157086768Y-111724714D01*
X157104853Y-111713533D01*
X157151986Y-111692325D01*
X157223937Y-111662771D01*
X157316476Y-111626553D01*
X157425373Y-111585353D01*
X157546398Y-111540852D01*
X157577490Y-111529612D01*
X157701113Y-111484830D01*
X157813995Y-111443484D01*
X157911847Y-111407181D01*
X157990379Y-111377528D01*
X158045303Y-111356132D01*
X158072330Y-111344601D01*
X158074196Y-111343474D01*
X158061858Y-111334672D01*
X158020173Y-111315606D01*
X157953032Y-111287827D01*
X157864328Y-111252886D01*
X157757954Y-111212336D01*
X157637801Y-111167727D01*
X157584717Y-111148355D01*
X157081111Y-110965492D01*
X157081111Y-110890336D01*
X157081111Y-110815179D01*
X157208992Y-110862411D01*
G37*
G36*
X157147256Y-97699737D02*
G01*
X157180104Y-97712387D01*
X157241282Y-97735697D01*
X157326106Y-97767893D01*
X157429892Y-97807199D01*
X157547957Y-97851841D01*
X157675618Y-97900044D01*
X157724930Y-97918646D01*
X158236458Y-98111563D01*
X158241769Y-98190774D01*
X158241915Y-98240366D01*
X158236105Y-98273347D01*
X158232050Y-98279274D01*
X158212455Y-98287543D01*
X158163860Y-98306680D01*
X158090287Y-98335142D01*
X157995756Y-98371384D01*
X157884290Y-98413862D01*
X157759910Y-98461032D01*
X157679933Y-98491254D01*
X157548759Y-98540769D01*
X157427211Y-98586669D01*
X157319478Y-98627373D01*
X157229745Y-98661297D01*
X157162200Y-98686860D01*
X157121030Y-98702478D01*
X157110851Y-98706369D01*
X157091150Y-98710058D01*
X157083132Y-98695405D01*
X157083603Y-98654822D01*
X157084393Y-98643498D01*
X157089930Y-98568202D01*
X157574999Y-98392322D01*
X157698838Y-98347180D01*
X157811890Y-98305512D01*
X157909896Y-98268924D01*
X157988596Y-98239022D01*
X158043731Y-98217414D01*
X158071041Y-98205705D01*
X158073066Y-98204474D01*
X158060445Y-98195739D01*
X158018496Y-98176731D01*
X157951125Y-98149003D01*
X157862241Y-98114106D01*
X157755750Y-98073593D01*
X157635562Y-98029017D01*
X157583586Y-98010055D01*
X157081111Y-97827602D01*
X157081111Y-97750673D01*
X157081111Y-97673745D01*
X157147256Y-97699737D01*
G37*
G36*
X158243126Y-117803841D02*
G01*
X158240850Y-117896566D01*
X158236433Y-117987909D01*
X158230593Y-118065182D01*
X158226232Y-118102819D01*
X158189977Y-118239542D01*
X158125275Y-118357153D01*
X158034268Y-118452938D01*
X157919099Y-118524179D01*
X157881578Y-118539826D01*
X157819606Y-118560234D01*
X157761298Y-118571006D01*
X157693203Y-118573866D01*
X157692676Y-118573888D01*
X157624789Y-118571863D01*
X157482564Y-118553601D01*
X157364543Y-118512021D01*
X157267033Y-118445399D01*
X157202698Y-118374754D01*
X157158156Y-118309668D01*
X157125595Y-118244820D01*
X157103313Y-118172995D01*
X157089609Y-118086979D01*
X157082781Y-117979557D01*
X157081111Y-117859142D01*
X157081111Y-117746514D01*
X157186944Y-117746514D01*
X157187718Y-117918494D01*
X157196089Y-118059790D01*
X157221105Y-118173109D01*
X157264738Y-118262556D01*
X157328959Y-118332235D01*
X157411360Y-118384119D01*
X157490575Y-118410746D01*
X157588456Y-118425628D01*
X157693203Y-118428680D01*
X157793011Y-118419818D01*
X157876079Y-118398959D01*
X157901319Y-118387592D01*
X157985918Y-118330198D01*
X158048019Y-118258740D01*
X158089789Y-118168592D01*
X158113392Y-118055131D01*
X158120980Y-117918494D01*
X158121805Y-117746514D01*
X157654374Y-117746514D01*
X157186944Y-117746514D01*
X157081111Y-117746514D01*
X157081111Y-117605403D01*
X157663194Y-117605403D01*
X158245277Y-117605403D01*
X158243126Y-117803841D01*
G37*
G36*
X155140833Y-91658492D02*
G01*
X155140833Y-91870053D01*
X153734131Y-91874569D01*
X152327430Y-91879084D01*
X152450902Y-91948203D01*
X152550293Y-92004022D01*
X152645825Y-92058106D01*
X152740586Y-92112285D01*
X152837664Y-92168386D01*
X152940146Y-92228238D01*
X153051121Y-92293669D01*
X153173675Y-92366507D01*
X153310897Y-92448581D01*
X153465875Y-92541719D01*
X153641696Y-92647748D01*
X153841447Y-92768497D01*
X154068218Y-92905795D01*
X154068617Y-92906037D01*
X155139526Y-93554778D01*
X155140179Y-93779674D01*
X155140833Y-94004570D01*
X153447499Y-94004570D01*
X151754166Y-94004570D01*
X151754166Y-93792903D01*
X151754166Y-93581237D01*
X153068263Y-93581237D01*
X153280074Y-93581064D01*
X153481296Y-93580563D01*
X153669194Y-93579763D01*
X153841034Y-93578690D01*
X153994082Y-93577372D01*
X154125604Y-93575836D01*
X154232865Y-93574111D01*
X154313132Y-93572223D01*
X154363669Y-93570201D01*
X154381742Y-93568071D01*
X154381754Y-93568008D01*
X154366813Y-93555994D01*
X154325337Y-93529784D01*
X154261797Y-93492014D01*
X154180663Y-93445320D01*
X154086402Y-93392337D01*
X154045291Y-93369570D01*
X153969408Y-93326668D01*
X153867363Y-93267353D01*
X153742923Y-93193888D01*
X153599855Y-93108540D01*
X153441924Y-93013573D01*
X153272896Y-92911251D01*
X153096538Y-92803839D01*
X152916616Y-92693602D01*
X152736896Y-92582804D01*
X152736210Y-92582380D01*
X151762986Y-91980397D01*
X151758116Y-91713664D01*
X151753247Y-91446931D01*
X153447040Y-91446931D01*
X155140833Y-91446931D01*
X155140833Y-91658492D01*
G37*
G36*
X151780816Y-104596407D02*
G01*
X151825654Y-104620936D01*
X151895909Y-104660023D01*
X151988973Y-104712197D01*
X152102239Y-104775989D01*
X152233097Y-104849929D01*
X152378940Y-104932548D01*
X152537160Y-105022375D01*
X152705149Y-105117942D01*
X152750069Y-105143528D01*
X153725301Y-105699153D01*
X154433067Y-105699153D01*
X155140833Y-105699153D01*
X155140833Y-105919639D01*
X155140833Y-106140126D01*
X154413229Y-106141066D01*
X153685624Y-106142007D01*
X152724305Y-106694695D01*
X151762986Y-107247383D01*
X151758023Y-107025416D01*
X151756701Y-106939352D01*
X151756695Y-106865568D01*
X151757926Y-106811521D01*
X151760316Y-106784668D01*
X151760562Y-106783901D01*
X151777001Y-106771630D01*
X151821267Y-106743938D01*
X151890367Y-106702567D01*
X151981304Y-106649258D01*
X152091085Y-106585753D01*
X152216715Y-106513794D01*
X152355200Y-106435122D01*
X152503545Y-106351479D01*
X152519326Y-106342617D01*
X152667718Y-106258917D01*
X152805863Y-106180230D01*
X152930871Y-106108255D01*
X153039852Y-106044693D01*
X153129917Y-105991245D01*
X153198174Y-105949611D01*
X153241735Y-105921493D01*
X153257709Y-105908591D01*
X153257620Y-105908132D01*
X153240056Y-105897221D01*
X153194716Y-105870869D01*
X153124647Y-105830801D01*
X153032893Y-105778739D01*
X152922500Y-105716406D01*
X152796514Y-105645525D01*
X152657979Y-105567821D01*
X152509943Y-105485016D01*
X152503819Y-105481596D01*
X151762986Y-105067809D01*
X151758078Y-104827856D01*
X151757039Y-104740474D01*
X151757594Y-104667326D01*
X151759585Y-104614810D01*
X151762854Y-104589325D01*
X151764004Y-104587903D01*
X151780816Y-104596407D01*
G37*
G36*
X157689652Y-95877776D02*
G01*
X157774007Y-95883128D01*
X157835600Y-95892509D01*
X157886929Y-95908802D01*
X157940491Y-95934889D01*
X157942866Y-95936181D01*
X158055433Y-96016724D01*
X158143951Y-96119488D01*
X158206434Y-96239170D01*
X158240896Y-96370465D01*
X158245352Y-96508068D01*
X158217814Y-96646674D01*
X158213581Y-96659359D01*
X158154055Y-96780072D01*
X158068231Y-96880751D01*
X157960579Y-96958618D01*
X157835568Y-97010896D01*
X157697669Y-97034810D01*
X157645555Y-97034531D01*
X157609939Y-97034341D01*
X157464898Y-97008056D01*
X157338260Y-96952936D01*
X157232664Y-96871665D01*
X157150750Y-96766927D01*
X157095157Y-96641403D01*
X157068523Y-96497778D01*
X157067570Y-96482834D01*
X157067842Y-96473622D01*
X157181058Y-96473622D01*
X157198114Y-96580679D01*
X157242499Y-96680797D01*
X157315386Y-96768083D01*
X157319420Y-96771672D01*
X157397421Y-96830246D01*
X157476902Y-96866120D01*
X157569808Y-96883517D01*
X157645555Y-96886937D01*
X157761660Y-96880957D01*
X157854484Y-96858933D01*
X157933557Y-96817785D01*
X157984141Y-96777482D01*
X158064942Y-96682981D01*
X158113160Y-96575198D01*
X158128668Y-96454670D01*
X158111339Y-96321937D01*
X158100283Y-96281662D01*
X158066224Y-96216038D01*
X158008354Y-96149210D01*
X157936547Y-96090472D01*
X157860672Y-96049114D01*
X157848479Y-96044617D01*
X157762948Y-96025309D01*
X157662724Y-96017367D01*
X157562804Y-96020948D01*
X157478182Y-96036212D01*
X157464721Y-96040570D01*
X157362700Y-96093901D01*
X157282153Y-96169766D01*
X157224249Y-96262271D01*
X157190160Y-96365521D01*
X157181058Y-96473622D01*
X157067842Y-96473622D01*
X157071628Y-96345445D01*
X157101456Y-96227602D01*
X157159641Y-96122264D01*
X157229891Y-96040711D01*
X157322227Y-95962517D01*
X157419579Y-95911033D01*
X157529940Y-95883426D01*
X157661306Y-95876863D01*
X157689652Y-95877776D01*
G37*
G36*
X157737974Y-103364503D02*
G01*
X157847459Y-103385284D01*
X157910138Y-103408365D01*
X158029185Y-103483578D01*
X158128568Y-103585542D01*
X158188423Y-103679501D01*
X158213592Y-103736459D01*
X158228794Y-103795516D01*
X158236834Y-103869857D01*
X158239071Y-103917626D01*
X158239809Y-103992524D01*
X158237177Y-104058561D01*
X158231726Y-104104168D01*
X158229787Y-104111653D01*
X158168608Y-104243950D01*
X158079755Y-104355014D01*
X157965394Y-104442432D01*
X157904700Y-104474093D01*
X157780528Y-104512857D01*
X157663194Y-104522726D01*
X157645097Y-104524248D01*
X157509352Y-104508307D01*
X157399446Y-104472206D01*
X157284671Y-104402186D01*
X157187601Y-104305918D01*
X157115095Y-104190720D01*
X157097988Y-104150488D01*
X157070254Y-104036615D01*
X157065303Y-103918174D01*
X157181413Y-103918174D01*
X157189027Y-104029656D01*
X157223711Y-104135501D01*
X157285268Y-104229153D01*
X157342693Y-104282764D01*
X157420806Y-104332079D01*
X157504362Y-104361496D01*
X157604508Y-104374235D01*
X157663194Y-104375364D01*
X157797862Y-104360884D01*
X157911948Y-104319796D01*
X158003603Y-104253079D01*
X158070978Y-104161709D01*
X158072324Y-104159138D01*
X158116145Y-104045409D01*
X158127759Y-103931113D01*
X158107513Y-103809638D01*
X158093037Y-103764407D01*
X158052668Y-103691760D01*
X157988024Y-103620688D01*
X157909115Y-103561079D01*
X157862024Y-103536212D01*
X157796436Y-103517815D01*
X157709865Y-103507615D01*
X157615709Y-103505904D01*
X157527365Y-103512970D01*
X157462451Y-103527572D01*
X157408102Y-103554189D01*
X157348403Y-103594411D01*
X157322923Y-103615484D01*
X157248167Y-103704531D01*
X157201061Y-103807613D01*
X157181413Y-103918174D01*
X157065303Y-103918174D01*
X157065029Y-103911608D01*
X157081681Y-103788628D01*
X157119577Y-103680841D01*
X157120618Y-103678792D01*
X157183526Y-103585043D01*
X157269271Y-103496884D01*
X157365888Y-103425692D01*
X157413151Y-103400642D01*
X157507805Y-103371980D01*
X157620417Y-103360001D01*
X157737974Y-103364503D01*
G37*
G36*
X158238576Y-99360846D02*
G01*
X158244973Y-99399886D01*
X158245277Y-99416554D01*
X158243575Y-99457695D01*
X158233048Y-99482793D01*
X158205568Y-99501110D01*
X158153005Y-99521903D01*
X158152673Y-99522026D01*
X158093006Y-99543686D01*
X158041189Y-99561755D01*
X158019929Y-99568723D01*
X158004613Y-99574510D01*
X157993905Y-99584490D01*
X157987117Y-99604136D01*
X157983560Y-99638920D01*
X157982543Y-99694313D01*
X157983379Y-99775789D01*
X157984651Y-99848784D01*
X157989513Y-100116445D01*
X158117395Y-100160282D01*
X158245277Y-100204119D01*
X158245277Y-100280533D01*
X158243202Y-100327808D01*
X158234617Y-100347512D01*
X158215988Y-100347229D01*
X158214409Y-100346721D01*
X158190855Y-100338377D01*
X158138321Y-100319440D01*
X158060964Y-100291418D01*
X157962943Y-100255821D01*
X157857222Y-100217362D01*
X157848413Y-100214158D01*
X157721532Y-100167938D01*
X157636736Y-100137017D01*
X157089930Y-99937539D01*
X157085089Y-99850603D01*
X157084669Y-99843056D01*
X157269898Y-99843056D01*
X157279771Y-99853252D01*
X157317130Y-99871832D01*
X157375965Y-99896105D01*
X157446287Y-99921992D01*
X157536676Y-99953877D01*
X157627895Y-99986436D01*
X157707135Y-100015079D01*
X157746979Y-100029732D01*
X157857222Y-100070767D01*
X157857222Y-99849184D01*
X157856392Y-99753352D01*
X157853618Y-99688612D01*
X157848471Y-99650813D01*
X157840521Y-99635801D01*
X157835173Y-99635610D01*
X157811656Y-99644000D01*
X157761098Y-99661947D01*
X157689718Y-99687245D01*
X157603735Y-99717690D01*
X157548541Y-99737221D01*
X157457544Y-99769850D01*
X157378249Y-99799108D01*
X157316658Y-99822715D01*
X157278770Y-99838392D01*
X157269898Y-99843056D01*
X157084669Y-99843056D01*
X157080249Y-99763667D01*
X157640714Y-99562186D01*
X157774553Y-99514080D01*
X157898240Y-99469637D01*
X158007747Y-99430304D01*
X158099048Y-99397526D01*
X158168114Y-99372750D01*
X158210920Y-99357421D01*
X158223229Y-99353042D01*
X158238576Y-99360846D01*
G37*
G36*
X157992838Y-106922795D02*
G01*
X158038862Y-106940068D01*
X158104292Y-106981987D01*
X158165532Y-107045931D01*
X158211727Y-107119279D01*
X158226578Y-107158289D01*
X158241864Y-107247843D01*
X158243687Y-107346698D01*
X158232654Y-107440190D01*
X158212122Y-107507869D01*
X158156577Y-107592206D01*
X158079195Y-107657321D01*
X158002195Y-107691572D01*
X157950013Y-107704925D01*
X157913368Y-107708322D01*
X157873963Y-107701800D01*
X157836930Y-107691905D01*
X157775029Y-107666392D01*
X157723478Y-107624560D01*
X157678818Y-107561622D01*
X157637590Y-107472788D01*
X157599377Y-107362987D01*
X157562419Y-107254094D01*
X157528279Y-107175490D01*
X157493469Y-107122756D01*
X157454501Y-107091471D01*
X157407888Y-107077215D01*
X157372126Y-107074987D01*
X157292972Y-107088257D01*
X157251484Y-107111210D01*
X157209542Y-107163719D01*
X157182979Y-107236505D01*
X157175741Y-107316468D01*
X157179574Y-107349912D01*
X157202123Y-107412163D01*
X157241107Y-107470697D01*
X157287315Y-107513258D01*
X157311191Y-107525024D01*
X157333688Y-107540004D01*
X157343856Y-107572534D01*
X157345694Y-107614161D01*
X157341999Y-107661083D01*
X157332666Y-107688982D01*
X157327352Y-107692348D01*
X157301348Y-107684858D01*
X157258083Y-107666077D01*
X157240643Y-107657469D01*
X157158149Y-107596699D01*
X157101201Y-107511745D01*
X157069960Y-107402920D01*
X157063472Y-107311715D01*
X157076702Y-107184775D01*
X157116328Y-107081021D01*
X157182252Y-107000643D01*
X157247819Y-106956370D01*
X157302545Y-106939302D01*
X157373857Y-106931376D01*
X157446645Y-106932929D01*
X157505798Y-106944301D01*
X157519793Y-106950289D01*
X157569844Y-106990980D01*
X157616140Y-107058792D01*
X157660269Y-107156557D01*
X157698385Y-107269014D01*
X157741105Y-107390458D01*
X157786154Y-107478460D01*
X157835587Y-107534856D01*
X157891454Y-107561481D01*
X157955811Y-107560169D01*
X158006053Y-107544013D01*
X158066598Y-107500767D01*
X158109903Y-107433492D01*
X158131989Y-107350850D01*
X158130746Y-107272500D01*
X158111820Y-107212317D01*
X158077340Y-107153659D01*
X158034742Y-107105873D01*
X157991460Y-107078306D01*
X157973638Y-107074987D01*
X157955378Y-107066251D01*
X157946911Y-107035158D01*
X157945416Y-106995612D01*
X157948264Y-106944097D01*
X157961650Y-106921264D01*
X157992838Y-106922795D01*
G37*
G36*
X152993298Y-109103765D02*
G01*
X153246468Y-109103863D01*
X153467055Y-109104152D01*
X153657755Y-109104826D01*
X153821264Y-109106078D01*
X153960276Y-109108102D01*
X154077488Y-109111091D01*
X154175595Y-109115239D01*
X154257291Y-109120740D01*
X154325274Y-109127787D01*
X154382237Y-109136573D01*
X154430876Y-109147292D01*
X154473887Y-109160137D01*
X154513965Y-109175303D01*
X154553806Y-109192982D01*
X154596104Y-109213369D01*
X154609161Y-109219788D01*
X154753641Y-109310151D01*
X154877745Y-109428184D01*
X154980910Y-109572369D01*
X155062575Y-109741188D01*
X155122174Y-109933122D01*
X155159146Y-110146652D01*
X155172927Y-110380259D01*
X155162954Y-110632426D01*
X155156848Y-110696635D01*
X155120165Y-110914117D01*
X155058876Y-111107721D01*
X154973505Y-111276761D01*
X154864576Y-111420555D01*
X154732616Y-111538418D01*
X154578149Y-111629666D01*
X154401700Y-111693614D01*
X154389486Y-111696809D01*
X154361816Y-111703528D01*
X154333332Y-111709325D01*
X154301338Y-111714268D01*
X154263139Y-111718424D01*
X154216037Y-111721862D01*
X154157337Y-111724649D01*
X154084342Y-111726854D01*
X153994356Y-111728542D01*
X153884684Y-111729784D01*
X153752627Y-111730646D01*
X153595491Y-111731196D01*
X153410579Y-111731501D01*
X153195195Y-111731631D01*
X153003706Y-111731653D01*
X151754166Y-111731653D01*
X151754166Y-111511728D01*
X151754166Y-111291802D01*
X153010937Y-111286812D01*
X153262580Y-111285843D01*
X153481509Y-111284903D01*
X153670287Y-111283736D01*
X153831475Y-111282090D01*
X153967636Y-111279711D01*
X154081332Y-111276346D01*
X154175126Y-111271739D01*
X154251580Y-111265638D01*
X154313258Y-111257789D01*
X154362720Y-111247938D01*
X154402529Y-111235832D01*
X154435249Y-111221216D01*
X154463441Y-111203837D01*
X154489667Y-111183440D01*
X154516491Y-111159774D01*
X154543760Y-111135019D01*
X154629051Y-111041533D01*
X154694276Y-110930752D01*
X154740902Y-110798756D01*
X154770396Y-110641623D01*
X154782558Y-110496931D01*
X154781456Y-110293403D01*
X154757754Y-110111091D01*
X154711970Y-109951997D01*
X154644622Y-109818123D01*
X154587441Y-109743254D01*
X154514083Y-109681134D01*
X154416301Y-109625743D01*
X154304924Y-109582469D01*
X154223258Y-109562003D01*
X154186940Y-109558536D01*
X154117541Y-109555377D01*
X154017257Y-109552557D01*
X153888285Y-109550106D01*
X153732820Y-109548055D01*
X153553058Y-109546433D01*
X153351195Y-109545270D01*
X153129428Y-109544597D01*
X152942384Y-109544431D01*
X151754166Y-109544431D01*
X151754166Y-109323945D01*
X151754166Y-109103459D01*
X152993298Y-109103765D01*
G37*
G36*
X155131490Y-118414357D02*
G01*
X155136850Y-118439382D01*
X155139662Y-118485683D01*
X155140716Y-118558650D01*
X155140833Y-118617184D01*
X155140833Y-118837591D01*
X155048229Y-118871340D01*
X155005261Y-118886547D01*
X154934838Y-118910942D01*
X154842946Y-118942477D01*
X154735570Y-118979100D01*
X154618695Y-119018763D01*
X154545520Y-119043498D01*
X154135416Y-119181907D01*
X154135572Y-119862093D01*
X154135729Y-120542278D01*
X154637993Y-120718667D01*
X155140257Y-120895056D01*
X155140545Y-121113020D01*
X155139829Y-121207881D01*
X155137096Y-121271682D01*
X155131914Y-121308605D01*
X155123847Y-121322831D01*
X155118784Y-121322811D01*
X155099422Y-121315858D01*
X155049090Y-121297854D01*
X154970045Y-121269604D01*
X154864544Y-121231914D01*
X154734843Y-121185589D01*
X154583198Y-121131436D01*
X154411866Y-121070261D01*
X154223103Y-121002868D01*
X154019164Y-120930064D01*
X153802308Y-120852653D01*
X153764999Y-120839336D01*
X153574789Y-120771443D01*
X153425029Y-120717992D01*
X151753323Y-120121345D01*
X151758154Y-119840401D01*
X151758166Y-119839718D01*
X152231886Y-119839718D01*
X152233771Y-119854709D01*
X152234777Y-119855783D01*
X152253083Y-119863686D01*
X152301144Y-119882033D01*
X152375445Y-119909543D01*
X152472468Y-119944937D01*
X152588695Y-119986936D01*
X152720610Y-120034259D01*
X152864695Y-120085626D01*
X152938862Y-120111952D01*
X153090241Y-120165666D01*
X153233409Y-120216577D01*
X153364469Y-120263293D01*
X153479521Y-120304417D01*
X153574667Y-120338555D01*
X153646009Y-120364314D01*
X153689648Y-120380298D01*
X153698854Y-120383792D01*
X153764999Y-120409701D01*
X153764999Y-119861151D01*
X153764716Y-119701731D01*
X153763785Y-119574629D01*
X153762087Y-119476886D01*
X153759500Y-119405547D01*
X153755903Y-119357655D01*
X153751178Y-119330253D01*
X153745202Y-119320383D01*
X153742951Y-119320465D01*
X153722122Y-119327643D01*
X153671394Y-119345017D01*
X153594257Y-119371397D01*
X153494200Y-119405589D01*
X153374712Y-119446402D01*
X153239283Y-119492642D01*
X153091404Y-119543118D01*
X152980069Y-119581111D01*
X152826064Y-119633733D01*
X152682566Y-119682903D01*
X152552976Y-119727448D01*
X152440695Y-119766191D01*
X152349125Y-119797957D01*
X152281667Y-119821571D01*
X152241720Y-119835856D01*
X152231886Y-119839718D01*
X151758166Y-119839718D01*
X151762986Y-119559458D01*
X153421041Y-118987921D01*
X153653871Y-118907672D01*
X153877588Y-118830580D01*
X154089896Y-118757435D01*
X154288502Y-118689028D01*
X154471109Y-118626147D01*
X154635425Y-118569583D01*
X154779152Y-118520125D01*
X154899998Y-118478564D01*
X154995666Y-118445689D01*
X155063863Y-118422291D01*
X155102293Y-118409158D01*
X155109965Y-118406580D01*
X155122791Y-118405220D01*
X155131490Y-118414357D01*
G37*
G36*
X153672170Y-113819594D02*
G01*
X153879158Y-113839363D01*
X154066205Y-113874101D01*
X154239869Y-113925136D01*
X154406708Y-113993795D01*
X154461736Y-114020725D01*
X154609961Y-114111792D01*
X154750204Y-114227752D01*
X154874633Y-114360774D01*
X154975412Y-114503026D01*
X155012708Y-114571514D01*
X155067115Y-114691453D01*
X155107461Y-114803744D01*
X155135757Y-114917671D01*
X155154010Y-115042520D01*
X155164232Y-115187576D01*
X155167299Y-115285889D01*
X155168861Y-115386337D01*
X155169316Y-115478037D01*
X155168699Y-115553523D01*
X155167045Y-115605326D01*
X155165705Y-115621028D01*
X155159722Y-115664139D01*
X155150808Y-115729166D01*
X155140751Y-115803062D01*
X155139352Y-115813386D01*
X155104432Y-115996849D01*
X155050513Y-116186323D01*
X154983039Y-116363225D01*
X154969673Y-116392730D01*
X154905964Y-116529431D01*
X154194371Y-116529431D01*
X153482777Y-116529431D01*
X153482777Y-116300126D01*
X153482777Y-116070820D01*
X154089386Y-116070820D01*
X154695996Y-116070820D01*
X154732488Y-115934119D01*
X154782202Y-115701646D01*
X154804877Y-115480413D01*
X154800875Y-115272722D01*
X154770554Y-115080878D01*
X154714274Y-114907184D01*
X154632395Y-114753942D01*
X154528261Y-114626423D01*
X154419812Y-114536812D01*
X154284649Y-114455486D01*
X154131123Y-114386854D01*
X153985486Y-114339935D01*
X153890196Y-114321033D01*
X153768721Y-114306433D01*
X153629917Y-114296380D01*
X153482641Y-114291116D01*
X153335751Y-114290886D01*
X153198104Y-114295932D01*
X153078557Y-114306498D01*
X153029838Y-114313665D01*
X152816414Y-114362698D01*
X152632052Y-114430933D01*
X152475854Y-114518949D01*
X152346919Y-114627325D01*
X152244348Y-114756638D01*
X152190657Y-114853737D01*
X152146028Y-114957936D01*
X152115992Y-115055692D01*
X152098196Y-115158623D01*
X152090290Y-115278346D01*
X152089305Y-115354492D01*
X152103035Y-115559679D01*
X152144790Y-115744785D01*
X152215422Y-115912224D01*
X152315781Y-116064411D01*
X152356354Y-116112579D01*
X152444123Y-116211055D01*
X152325637Y-116352604D01*
X152275510Y-116411074D01*
X152233210Y-116457787D01*
X152204022Y-116487061D01*
X152193976Y-116494153D01*
X152171932Y-116480910D01*
X152134555Y-116445394D01*
X152087176Y-116393923D01*
X152035125Y-116332817D01*
X151983735Y-116268395D01*
X151938335Y-116206975D01*
X151904257Y-116154876D01*
X151897292Y-116142486D01*
X151819009Y-115967640D01*
X151760153Y-115777639D01*
X151735647Y-115657906D01*
X151724735Y-115554888D01*
X151720202Y-115429274D01*
X151721614Y-115291276D01*
X151728537Y-115151103D01*
X151740536Y-115018966D01*
X151757176Y-114905076D01*
X151770203Y-114845941D01*
X151841891Y-114639560D01*
X151941397Y-114454482D01*
X152067973Y-114291307D01*
X152220872Y-114150635D01*
X152399346Y-114033067D01*
X152602650Y-113939202D01*
X152830036Y-113869643D01*
X153032986Y-113831296D01*
X153095107Y-113825060D01*
X153182611Y-113819761D01*
X153285603Y-113815832D01*
X153394193Y-113813710D01*
X153438680Y-113813463D01*
X153672170Y-113819594D01*
G37*
G36*
X155134430Y-100071289D02*
G01*
X155137471Y-100116795D01*
X155139668Y-100184876D01*
X155140760Y-100269183D01*
X155140833Y-100298610D01*
X155140833Y-100542512D01*
X154436120Y-101043854D01*
X154296745Y-101143174D01*
X154166502Y-101236310D01*
X154048146Y-101321268D01*
X153944434Y-101396054D01*
X153858122Y-101458675D01*
X153791965Y-101507137D01*
X153748720Y-101539447D01*
X153731142Y-101553610D01*
X153730886Y-101554014D01*
X153744701Y-101565687D01*
X153784528Y-101595796D01*
X153847618Y-101642347D01*
X153931225Y-101703342D01*
X154032601Y-101776787D01*
X154149000Y-101860687D01*
X154277673Y-101953044D01*
X154415874Y-102051864D01*
X154435043Y-102065542D01*
X155139722Y-102568251D01*
X155140277Y-102821075D01*
X155139511Y-102910344D01*
X155137028Y-102984955D01*
X155133177Y-103038861D01*
X155128303Y-103066020D01*
X155126087Y-103068019D01*
X155109468Y-103056952D01*
X155066728Y-103027118D01*
X155000407Y-102980322D01*
X154913042Y-102918371D01*
X154807171Y-102843068D01*
X154685334Y-102756220D01*
X154550067Y-102659631D01*
X154403910Y-102555107D01*
X154254607Y-102448186D01*
X153397873Y-101834232D01*
X152659804Y-102357993D01*
X152513706Y-102461696D01*
X152373928Y-102560963D01*
X152243583Y-102653581D01*
X152125782Y-102737337D01*
X152023637Y-102810017D01*
X151940260Y-102869407D01*
X151878762Y-102913295D01*
X151842255Y-102939467D01*
X151837951Y-102942580D01*
X151754166Y-103003408D01*
X151754190Y-102750552D01*
X151754214Y-102497695D01*
X152383329Y-102047846D01*
X152514998Y-101953388D01*
X152637592Y-101864848D01*
X152748161Y-101784397D01*
X152843756Y-101714210D01*
X152921430Y-101656458D01*
X152978233Y-101613316D01*
X153011217Y-101586957D01*
X153018530Y-101579741D01*
X153005908Y-101566013D01*
X152967352Y-101534064D01*
X152905728Y-101486046D01*
X152823902Y-101424112D01*
X152724739Y-101350415D01*
X152611104Y-101267108D01*
X152485864Y-101176344D01*
X152389391Y-101107068D01*
X151754166Y-100652650D01*
X151754166Y-100395683D01*
X151754166Y-100138716D01*
X151811492Y-100182064D01*
X151881870Y-100234593D01*
X151970635Y-100299754D01*
X152074606Y-100375297D01*
X152190604Y-100458974D01*
X152315450Y-100548536D01*
X152445964Y-100641734D01*
X152578966Y-100736319D01*
X152711276Y-100830043D01*
X152839716Y-100920656D01*
X152961105Y-101005910D01*
X153072263Y-101083557D01*
X153170012Y-101151347D01*
X153251172Y-101207031D01*
X153312562Y-101248361D01*
X153351004Y-101273087D01*
X153363036Y-101279403D01*
X153382496Y-101269657D01*
X153428054Y-101241156D01*
X153497120Y-101195676D01*
X153587101Y-101134988D01*
X153695406Y-101060866D01*
X153819443Y-100975084D01*
X153956620Y-100879415D01*
X154104346Y-100775633D01*
X154257002Y-100667660D01*
X154411980Y-100557800D01*
X154558368Y-100454253D01*
X154693644Y-100358787D01*
X154815289Y-100273170D01*
X154920782Y-100199170D01*
X155007601Y-100138556D01*
X155073226Y-100093096D01*
X155115137Y-100064557D01*
X155130806Y-100054709D01*
X155134430Y-100071289D01*
G37*
G36*
X155927819Y-90335683D02*
G01*
X156363305Y-90335696D01*
X156766069Y-90335730D01*
X157137389Y-90335794D01*
X157478543Y-90335900D01*
X157790810Y-90336057D01*
X158075466Y-90336274D01*
X158333791Y-90336563D01*
X158567061Y-90336933D01*
X158776555Y-90337395D01*
X158963551Y-90337958D01*
X159129327Y-90338632D01*
X159275161Y-90339428D01*
X159402331Y-90340355D01*
X159512114Y-90341424D01*
X159605789Y-90342644D01*
X159684634Y-90344027D01*
X159749926Y-90345581D01*
X159802944Y-90347317D01*
X159844966Y-90349245D01*
X159877269Y-90351375D01*
X159901131Y-90353717D01*
X159917831Y-90356281D01*
X159928647Y-90359077D01*
X159934856Y-90362115D01*
X159937736Y-90365406D01*
X159938565Y-90368959D01*
X159938611Y-90370959D01*
X159938351Y-90374656D01*
X159936720Y-90378085D01*
X159932441Y-90381256D01*
X159924234Y-90384180D01*
X159910823Y-90386866D01*
X159890928Y-90389325D01*
X159863273Y-90391566D01*
X159826579Y-90393600D01*
X159779568Y-90395437D01*
X159720962Y-90397087D01*
X159649484Y-90398559D01*
X159563855Y-90399864D01*
X159462797Y-90401013D01*
X159345032Y-90402014D01*
X159209283Y-90402878D01*
X159054272Y-90403616D01*
X158878719Y-90404237D01*
X158681349Y-90404751D01*
X158460882Y-90405168D01*
X158216040Y-90405499D01*
X157945546Y-90405754D01*
X157648122Y-90405942D01*
X157322489Y-90406073D01*
X156967370Y-90406158D01*
X156581487Y-90406207D01*
X156163561Y-90406230D01*
X155712316Y-90406236D01*
X155458333Y-90406237D01*
X154988847Y-90406235D01*
X154553361Y-90406222D01*
X154150597Y-90406188D01*
X153779276Y-90406124D01*
X153438122Y-90406018D01*
X153125856Y-90405861D01*
X152841199Y-90405644D01*
X152582875Y-90405355D01*
X152349605Y-90404984D01*
X152140110Y-90404523D01*
X151953114Y-90403960D01*
X151787338Y-90403286D01*
X151641504Y-90402490D01*
X151514335Y-90401563D01*
X151404551Y-90400494D01*
X151310876Y-90399273D01*
X151232032Y-90397891D01*
X151166739Y-90396337D01*
X151113721Y-90394601D01*
X151071700Y-90392673D01*
X151039397Y-90390543D01*
X151015534Y-90388201D01*
X150998834Y-90385637D01*
X150988019Y-90382841D01*
X150981810Y-90379803D01*
X150978930Y-90376512D01*
X150978100Y-90372959D01*
X150978055Y-90370959D01*
X150978314Y-90367262D01*
X150979945Y-90363833D01*
X150984225Y-90360662D01*
X150992431Y-90357738D01*
X151005843Y-90355052D01*
X151025737Y-90352593D01*
X151053392Y-90350352D01*
X151090087Y-90348318D01*
X151137098Y-90346481D01*
X151195703Y-90344831D01*
X151267182Y-90343359D01*
X151352811Y-90342053D01*
X151453869Y-90340905D01*
X151571633Y-90339904D01*
X151707382Y-90339039D01*
X151862394Y-90338302D01*
X152037946Y-90337681D01*
X152235317Y-90337167D01*
X152455784Y-90336749D01*
X152700625Y-90336419D01*
X152971119Y-90336164D01*
X153268544Y-90335976D01*
X153594176Y-90335845D01*
X153949295Y-90335760D01*
X154335179Y-90335711D01*
X154753104Y-90335688D01*
X155204350Y-90335682D01*
X155458333Y-90335681D01*
X155927819Y-90335683D01*
G37*
G36*
X153067025Y-85245273D02*
G01*
X153316405Y-85246503D01*
X153600168Y-85248584D01*
X153714661Y-85249578D01*
X155033526Y-85261458D01*
X155430916Y-85695132D01*
X155828306Y-86128806D01*
X154893667Y-86133370D01*
X153959027Y-86137935D01*
X153959027Y-86420002D01*
X153959027Y-86702070D01*
X155255486Y-86702070D01*
X156551944Y-86702070D01*
X156551230Y-86441896D01*
X156550517Y-86181723D01*
X156330534Y-85952417D01*
X156238528Y-85856414D01*
X156132879Y-85746018D01*
X156024262Y-85632392D01*
X155923350Y-85526700D01*
X155883571Y-85484987D01*
X155656590Y-85246862D01*
X156276246Y-85258840D01*
X156444664Y-85262276D01*
X156581888Y-85265590D01*
X156691997Y-85269043D01*
X156779071Y-85272896D01*
X156847193Y-85277409D01*
X156900442Y-85282844D01*
X156942898Y-85289462D01*
X156978643Y-85297522D01*
X157006112Y-85305487D01*
X157157115Y-85370729D01*
X157290968Y-85463712D01*
X157405480Y-85580227D01*
X157498456Y-85716065D01*
X157567706Y-85867018D01*
X157611037Y-86028876D01*
X157626256Y-86197431D01*
X157611171Y-86368474D01*
X157595882Y-86437714D01*
X157572720Y-86511337D01*
X157543752Y-86583254D01*
X157521934Y-86626040D01*
X157503358Y-86652293D01*
X157464418Y-86703513D01*
X157406892Y-86777495D01*
X157332558Y-86872034D01*
X157243197Y-86984927D01*
X157140585Y-87113968D01*
X157026503Y-87256953D01*
X156902728Y-87411678D01*
X156771040Y-87575939D01*
X156633218Y-87747532D01*
X156491039Y-87924251D01*
X156346283Y-88103893D01*
X156200729Y-88284252D01*
X156056155Y-88463126D01*
X155914340Y-88638309D01*
X155777063Y-88807597D01*
X155646102Y-88968786D01*
X155523237Y-89119671D01*
X155410246Y-89258048D01*
X155308907Y-89381712D01*
X155221000Y-89488460D01*
X155148303Y-89576086D01*
X155092595Y-89642387D01*
X155055655Y-89685159D01*
X155040534Y-89701199D01*
X154941487Y-89769990D01*
X154819919Y-89825574D01*
X154687707Y-89862571D01*
X154681706Y-89863711D01*
X154551985Y-89872659D01*
X154412288Y-89855805D01*
X154274587Y-89814968D01*
X154228017Y-89794843D01*
X154195086Y-89778485D01*
X154163242Y-89760388D01*
X154131187Y-89738896D01*
X154097621Y-89712352D01*
X154061245Y-89679099D01*
X154020758Y-89637481D01*
X153974862Y-89585840D01*
X153922257Y-89522520D01*
X153861643Y-89445865D01*
X153791722Y-89354217D01*
X153711193Y-89245919D01*
X153618757Y-89119316D01*
X153513115Y-88972750D01*
X153392966Y-88804564D01*
X153257013Y-88613102D01*
X153103955Y-88396707D01*
X152932492Y-88153722D01*
X152858740Y-88049105D01*
X152714399Y-87844098D01*
X152575167Y-87645914D01*
X152442478Y-87456619D01*
X152317766Y-87278276D01*
X152202463Y-87112950D01*
X152098003Y-86962704D01*
X152005821Y-86829602D01*
X151927348Y-86715709D01*
X151864018Y-86623089D01*
X151817266Y-86553806D01*
X151788524Y-86509924D01*
X151780196Y-86496032D01*
X151748080Y-86424714D01*
X151719023Y-86344919D01*
X151709621Y-86313164D01*
X151693626Y-86223584D01*
X151685785Y-86114907D01*
X151686154Y-86001191D01*
X151694792Y-85896494D01*
X151707623Y-85828945D01*
X151765220Y-85675432D01*
X151849297Y-85539671D01*
X151956156Y-85425240D01*
X152082098Y-85335720D01*
X152223424Y-85274691D01*
X152299877Y-85255756D01*
X152340303Y-85251885D01*
X152415870Y-85248863D01*
X152526452Y-85246691D01*
X152671922Y-85245368D01*
X152852156Y-85244895D01*
X153067025Y-85245273D01*
G37*
G36*
X155931664Y-80256130D02*
G01*
X156077041Y-80305006D01*
X156214185Y-80383751D01*
X156319753Y-80472912D01*
X156342679Y-80500339D01*
X156383753Y-80554575D01*
X156441326Y-80633228D01*
X156513748Y-80733909D01*
X156599371Y-80854226D01*
X156696545Y-80991789D01*
X156803621Y-81144208D01*
X156918949Y-81309092D01*
X157040879Y-81484051D01*
X157167764Y-81666693D01*
X157297952Y-81854630D01*
X157429796Y-82045468D01*
X157561645Y-82236820D01*
X157691850Y-82426293D01*
X157818762Y-82611497D01*
X157940731Y-82790043D01*
X158056109Y-82959538D01*
X158163245Y-83117594D01*
X158260490Y-83261818D01*
X158346196Y-83389821D01*
X158418712Y-83499212D01*
X158476390Y-83587601D01*
X158517580Y-83652596D01*
X158540622Y-83691789D01*
X158606651Y-83851708D01*
X158643062Y-84020518D01*
X158648919Y-84190656D01*
X158623286Y-84354559D01*
X158622879Y-84356098D01*
X158564025Y-84517445D01*
X158480036Y-84657166D01*
X158373211Y-84772844D01*
X158245848Y-84862063D01*
X158100248Y-84922405D01*
X158078412Y-84928444D01*
X158035575Y-84937461D01*
X157981820Y-84944398D01*
X157912575Y-84949476D01*
X157823269Y-84952917D01*
X157709330Y-84954941D01*
X157566186Y-84955771D01*
X157512453Y-84955820D01*
X157391631Y-84956107D01*
X157242355Y-84956924D01*
X157071443Y-84958209D01*
X156885715Y-84959897D01*
X156691988Y-84961927D01*
X156497083Y-84964233D01*
X156307816Y-84966754D01*
X156255202Y-84967512D01*
X156065874Y-84970393D01*
X155908972Y-84973066D01*
X155781648Y-84975674D01*
X155681053Y-84978358D01*
X155604337Y-84981258D01*
X155548651Y-84984516D01*
X155511146Y-84988274D01*
X155488973Y-84992672D01*
X155479283Y-84997852D01*
X155479226Y-85003955D01*
X155480605Y-85005919D01*
X155475546Y-85001951D01*
X155448479Y-84975163D01*
X155401906Y-84928114D01*
X155338324Y-84863360D01*
X155260232Y-84783461D01*
X155170130Y-84690972D01*
X155070515Y-84588453D01*
X154963888Y-84478461D01*
X154852747Y-84363554D01*
X154827449Y-84337363D01*
X154767254Y-84274160D01*
X154717104Y-84219859D01*
X154681556Y-84179519D01*
X154665165Y-84158195D01*
X154664583Y-84156564D01*
X154681683Y-84154266D01*
X154730833Y-84152110D01*
X154808804Y-84150138D01*
X154912366Y-84148391D01*
X155038291Y-84146911D01*
X155183352Y-84145739D01*
X155344318Y-84144917D01*
X155517962Y-84144487D01*
X155608263Y-84144431D01*
X156551944Y-84144431D01*
X156551944Y-83871028D01*
X156551944Y-83597626D01*
X155255486Y-83597626D01*
X153959027Y-83597626D01*
X153959758Y-83848980D01*
X153960489Y-84100334D01*
X154369862Y-84532487D01*
X154779236Y-84964639D01*
X154364722Y-84978463D01*
X154139734Y-84984579D01*
X153932019Y-84987452D01*
X153744338Y-84987154D01*
X153579454Y-84983758D01*
X153440131Y-84977334D01*
X153329132Y-84967954D01*
X153249219Y-84955691D01*
X153222838Y-84948841D01*
X153092363Y-84890168D01*
X152967585Y-84802023D01*
X152854279Y-84690211D01*
X152758217Y-84560539D01*
X152685174Y-84418810D01*
X152678221Y-84401245D01*
X152636215Y-84251141D01*
X152618944Y-84091546D01*
X152625983Y-83931406D01*
X152656904Y-83779669D01*
X152711279Y-83645282D01*
X152714604Y-83639182D01*
X152731330Y-83614949D01*
X152768375Y-83565371D01*
X152824005Y-83492636D01*
X152896483Y-83398930D01*
X152984074Y-83286442D01*
X153085041Y-83157360D01*
X153197648Y-83013871D01*
X153320160Y-82858162D01*
X153450840Y-82692422D01*
X153587953Y-82518838D01*
X153729763Y-82339598D01*
X153874534Y-82156889D01*
X154020531Y-81972899D01*
X154166016Y-81789815D01*
X154309254Y-81609826D01*
X154448510Y-81435119D01*
X154582047Y-81267882D01*
X154708130Y-81110302D01*
X154825022Y-80964567D01*
X154930988Y-80832864D01*
X155024292Y-80717382D01*
X155103198Y-80620308D01*
X155165970Y-80543829D01*
X155210872Y-80490133D01*
X155236156Y-80461421D01*
X155356324Y-80360250D01*
X155490384Y-80289183D01*
X155633911Y-80248172D01*
X155782479Y-80237170D01*
X155931664Y-80256130D01*
G37*
%TO.C,RIGHT*%
D12*
X155450000Y-64626250D02*
X155450000Y-66626250D01*
X155450000Y-66626250D02*
X159550000Y-66626250D01*
X155900000Y-64126250D02*
X156500000Y-64126250D01*
X156200000Y-64426250D02*
X155900000Y-64126250D01*
X156200000Y-64426250D02*
X156500000Y-64126250D01*
X159550000Y-64626250D02*
X155450000Y-64626250D01*
X159550000Y-66626250D02*
X159550000Y-64626250D01*
%TO.C,LEFT*%
X150050000Y-64626250D02*
X150050000Y-66626250D01*
X150050000Y-66626250D02*
X154150000Y-66626250D01*
X153400000Y-66826250D02*
X153100000Y-67126250D01*
X153400000Y-66826250D02*
X153700000Y-67126250D01*
X153700000Y-67126250D02*
X153100000Y-67126250D01*
X154150000Y-64626250D02*
X150050000Y-64626250D01*
X154150000Y-66626250D02*
X154150000Y-64626250D01*
%TO.C,BT_ADC*%
X161575000Y-116571250D02*
X161575000Y-117171250D01*
X162275000Y-117871250D02*
X163675000Y-117871250D01*
X163675000Y-115871250D02*
X162275000Y-115871250D01*
X164375000Y-117171250D02*
X164375000Y-116571250D01*
X161575000Y-116571250D02*
G75*
G02*
X162275000Y-115871250I699999J1D01*
G01*
X162275000Y-117871250D02*
G75*
G02*
X161575000Y-117171250I-1J699999D01*
G01*
X163675000Y-115871250D02*
G75*
G02*
X164375000Y-116571250I0J-700000D01*
G01*
X164375000Y-117171250D02*
G75*
G02*
X163675000Y-117871250I-700000J0D01*
G01*
%TO.C,BOOT_0*%
X151657500Y-73683750D02*
X151657500Y-77783750D01*
X151657500Y-77783750D02*
X153657500Y-77783750D01*
X153657500Y-73683750D02*
X151657500Y-73683750D01*
X153657500Y-77783750D02*
X153657500Y-73683750D01*
X153857500Y-74433750D02*
X154157500Y-74133750D01*
X153857500Y-74433750D02*
X154157500Y-74733750D01*
X154157500Y-74133750D02*
X154157500Y-74733750D01*
%TO.C,BOOT_1*%
X155300000Y-77400000D02*
X155300000Y-76800000D01*
X155600000Y-77100000D02*
X155300000Y-76800000D01*
X155600000Y-77100000D02*
X155300000Y-77400000D01*
X155800000Y-73750000D02*
X155800000Y-77850000D01*
X155800000Y-77850000D02*
X157800000Y-77850000D01*
X157800000Y-73750000D02*
X155800000Y-73750000D01*
X157800000Y-77850000D02*
X157800000Y-73750000D01*
%TD*%
M02*
