%TF.GenerationSoftware,KiCad,Pcbnew,10.0.1*%
%TF.CreationDate,2026-07-06T22:50:14+05:30*%
%TF.ProjectId,Tack_STM32_V_1,5461636b-5f53-4544-9d33-325f565f312e,rev?*%
%TF.SameCoordinates,Original*%
%TF.FileFunction,Paste,Top*%
%TF.FilePolarity,Positive*%
%FSLAX46Y46*%
G04 Gerber Fmt 4.6, Leading zero omitted, Abs format (unit mm)*
G04 Created by KiCad (PCBNEW 10.0.1) date 2026-07-06 22:50:14*
%MOMM*%
%LPD*%
G01*
G04 APERTURE LIST*
G04 Aperture macros list*
%AMRoundRect*
0 Rectangle with rounded corners*
0 $1 Rounding radius*
0 $2 $3 $4 $5 $6 $7 $8 $9 X,Y pos of 4 corners*
0 Add a 4 corners polygon primitive as box body*
4,1,4,$2,$3,$4,$5,$6,$7,$8,$9,$2,$3,0*
0 Add four circle primitives for the rounded corners*
1,1,$1+$1,$2,$3*
1,1,$1+$1,$4,$5*
1,1,$1+$1,$6,$7*
1,1,$1+$1,$8,$9*
0 Add four rect primitives between the rounded corners*
20,1,$1+$1,$2,$3,$4,$5,0*
20,1,$1+$1,$4,$5,$6,$7,0*
20,1,$1+$1,$6,$7,$8,$9,0*
20,1,$1+$1,$8,$9,$2,$3,0*%
G04 Aperture macros list end*
%ADD10RoundRect,0.160000X-0.160000X0.197500X-0.160000X-0.197500X0.160000X-0.197500X0.160000X0.197500X0*%
%ADD11RoundRect,0.160000X0.160000X-0.197500X0.160000X0.197500X-0.160000X0.197500X-0.160000X-0.197500X0*%
%ADD12RoundRect,0.237500X0.237500X-0.300000X0.237500X0.300000X-0.237500X0.300000X-0.237500X-0.300000X0*%
%ADD13RoundRect,0.237500X0.300000X0.237500X-0.300000X0.237500X-0.300000X-0.237500X0.300000X-0.237500X0*%
%ADD14RoundRect,0.160000X0.197500X0.160000X-0.197500X0.160000X-0.197500X-0.160000X0.197500X-0.160000X0*%
%ADD15R,2.540000X2.540000*%
%ADD16RoundRect,1.000000X-0.270000X-0.270000X0.270000X-0.270000X0.270000X0.270000X-0.270000X0.270000X0*%
%ADD17RoundRect,0.237500X0.250000X0.237500X-0.250000X0.237500X-0.250000X-0.237500X0.250000X-0.237500X0*%
%ADD18RoundRect,0.250000X-0.450000X0.325000X-0.450000X-0.325000X0.450000X-0.325000X0.450000X0.325000X0*%
%ADD19RoundRect,0.250000X0.900000X-1.000000X0.900000X1.000000X-0.900000X1.000000X-0.900000X-1.000000X0*%
%ADD20RoundRect,0.237500X-0.237500X0.250000X-0.237500X-0.250000X0.237500X-0.250000X0.237500X0.250000X0*%
%ADD21RoundRect,0.237500X0.237500X-0.250000X0.237500X0.250000X-0.237500X0.250000X-0.237500X-0.250000X0*%
%ADD22RoundRect,0.250000X2.000000X0.750000X-2.000000X0.750000X-2.000000X-0.750000X2.000000X-0.750000X0*%
%ADD23R,2.500000X1.200000*%
%ADD24RoundRect,0.250000X-0.440000X0.255000X-0.440000X-0.255000X0.440000X-0.255000X0.440000X0.255000X0*%
%ADD25RoundRect,0.150000X-0.150000X0.825000X-0.150000X-0.825000X0.150000X-0.825000X0.150000X0.825000X0*%
%ADD26RoundRect,0.237500X-0.300000X-0.237500X0.300000X-0.237500X0.300000X0.237500X-0.300000X0.237500X0*%
%ADD27RoundRect,0.375000X-0.625000X-0.375000X0.625000X-0.375000X0.625000X0.375000X-0.625000X0.375000X0*%
%ADD28RoundRect,0.500000X-0.500000X-1.400000X0.500000X-1.400000X0.500000X1.400000X-0.500000X1.400000X0*%
%ADD29RoundRect,0.075000X0.075000X-0.662500X0.075000X0.662500X-0.075000X0.662500X-0.075000X-0.662500X0*%
%ADD30RoundRect,0.075000X0.662500X-0.075000X0.662500X0.075000X-0.662500X0.075000X-0.662500X-0.075000X0*%
%ADD31RoundRect,0.150000X-0.512500X-0.150000X0.512500X-0.150000X0.512500X0.150000X-0.512500X0.150000X0*%
%ADD32RoundRect,0.237500X-0.237500X0.300000X-0.237500X-0.300000X0.237500X-0.300000X0.237500X0.300000X0*%
%ADD33RoundRect,0.250000X0.325000X0.450000X-0.325000X0.450000X-0.325000X-0.450000X0.325000X-0.450000X0*%
%ADD34RoundRect,0.160000X-0.197500X-0.160000X0.197500X-0.160000X0.197500X0.160000X-0.197500X0.160000X0*%
%ADD35R,1.700000X5.000000*%
%ADD36RoundRect,0.175000X-0.175000X-0.625000X0.175000X-0.625000X0.175000X0.625000X-0.175000X0.625000X0*%
%ADD37RoundRect,0.200000X-0.200000X-0.600000X0.200000X-0.600000X0.200000X0.600000X-0.200000X0.600000X0*%
%ADD38RoundRect,0.225000X-0.225000X-0.575000X0.225000X-0.575000X0.225000X0.575000X-0.225000X0.575000X0*%
%ADD39RoundRect,0.237500X-0.250000X-0.237500X0.250000X-0.237500X0.250000X0.237500X-0.250000X0.237500X0*%
G04 APERTURE END LIST*
D10*
%TO.C,R5*%
X159330000Y-132802500D03*
X159330000Y-133997500D03*
%TD*%
D11*
%TO.C,R4*%
X157800000Y-133997500D03*
X157800000Y-132802500D03*
%TD*%
D12*
%TO.C,C13*%
X142250000Y-121821250D03*
X142250000Y-123546250D03*
%TD*%
D13*
%TO.C,C26*%
X166862500Y-93983750D03*
X165137500Y-93983750D03*
%TD*%
D14*
%TO.C,R26*%
X139045000Y-72998036D03*
X137850000Y-72998036D03*
%TD*%
D15*
%TO.C,CONTENT_6*%
X131465000Y-89995893D03*
D16*
X134965000Y-89995893D03*
%TD*%
D12*
%TO.C,C2*%
X144300000Y-134046250D03*
X144300000Y-132321250D03*
%TD*%
D17*
%TO.C,R9*%
X136275000Y-106160000D03*
X134450000Y-106160000D03*
%TD*%
D18*
%TO.C,D2*%
X149600000Y-140658750D03*
X149600000Y-142708750D03*
%TD*%
D19*
%TO.C,D5*%
X157237500Y-125346250D03*
X157237500Y-121046250D03*
%TD*%
D20*
%TO.C,R8*%
X157400000Y-83071250D03*
X157400000Y-84896250D03*
%TD*%
D13*
%TO.C,C5*%
X157662500Y-102383750D03*
X155937500Y-102383750D03*
%TD*%
D15*
%TO.C,CONTENT_2*%
X131465000Y-64910179D03*
D16*
X134965000Y-64910179D03*
%TD*%
D10*
%TO.C,R33*%
X168400000Y-71085625D03*
X168400000Y-72280625D03*
%TD*%
D13*
%TO.C,C4*%
X148287500Y-90621250D03*
X146562500Y-90621250D03*
%TD*%
D12*
%TO.C,C8*%
X150575000Y-113783750D03*
X150575000Y-112058750D03*
%TD*%
D21*
%TO.C,R7*%
X152700000Y-84896250D03*
X152700000Y-83071250D03*
%TD*%
D22*
%TO.C,Y1*%
X157750000Y-107921250D03*
X149250000Y-107921250D03*
%TD*%
D23*
%TO.C,J4*%
X131087500Y-136021250D03*
X131087500Y-139021250D03*
X137587500Y-130921250D03*
X131087500Y-132021250D03*
%TD*%
D24*
%TO.C,U2*%
X149325000Y-130483750D03*
X147675000Y-130483750D03*
X149325000Y-131683750D03*
X147675000Y-131683750D03*
D25*
X150405000Y-128608750D03*
X149135000Y-128608750D03*
X147865000Y-128608750D03*
X146595000Y-128608750D03*
X146595000Y-133558750D03*
X147865000Y-133558750D03*
X149135000Y-133558750D03*
X150405000Y-133558750D03*
%TD*%
D26*
%TO.C,C20*%
X138037500Y-90069464D03*
X139762500Y-90069464D03*
%TD*%
D27*
%TO.C,U7*%
X144700000Y-120421250D03*
X144700000Y-122721250D03*
D28*
X151000000Y-122721250D03*
D27*
X144700000Y-125021250D03*
%TD*%
D26*
%TO.C,C18*%
X138037500Y-77555179D03*
X139762500Y-77555179D03*
%TD*%
D21*
%TO.C,R1*%
X147300000Y-137808750D03*
X147300000Y-135983750D03*
%TD*%
D14*
%TO.C,R30*%
X139045000Y-98026607D03*
X137850000Y-98026607D03*
%TD*%
D29*
%TO.C,U1*%
X151337500Y-99633750D03*
X151837500Y-99633750D03*
X152337500Y-99633750D03*
X152837500Y-99633750D03*
X153337500Y-99633750D03*
X153837500Y-99633750D03*
X154337500Y-99633750D03*
X154837500Y-99633750D03*
X155337500Y-99633750D03*
X155837500Y-99633750D03*
X156337500Y-99633750D03*
X156837500Y-99633750D03*
D30*
X158250000Y-98221250D03*
X158250000Y-97721250D03*
X158250000Y-97221250D03*
X158250000Y-96721250D03*
X158250000Y-96221250D03*
X158250000Y-95721250D03*
X158250000Y-95221250D03*
X158250000Y-94721250D03*
X158250000Y-94221250D03*
X158250000Y-93721250D03*
X158250000Y-93221250D03*
X158250000Y-92721250D03*
D29*
X156837500Y-91308750D03*
X156337500Y-91308750D03*
X155837500Y-91308750D03*
X155337500Y-91308750D03*
X154837500Y-91308750D03*
X154337500Y-91308750D03*
X153837500Y-91308750D03*
X153337500Y-91308750D03*
X152837500Y-91308750D03*
X152337500Y-91308750D03*
X151837500Y-91308750D03*
X151337500Y-91308750D03*
D30*
X149925000Y-92721250D03*
X149925000Y-93221250D03*
X149925000Y-93721250D03*
X149925000Y-94221250D03*
X149925000Y-94721250D03*
X149925000Y-95221250D03*
X149925000Y-95721250D03*
X149925000Y-96221250D03*
X149925000Y-96721250D03*
X149925000Y-97221250D03*
X149925000Y-97721250D03*
X149925000Y-98221250D03*
%TD*%
D31*
%TO.C,U6*%
X161487500Y-126221250D03*
X161487500Y-127171250D03*
X161487500Y-128121250D03*
X163762500Y-128121250D03*
X163762500Y-127171250D03*
X163762500Y-126221250D03*
%TD*%
D32*
%TO.C,C9*%
X156600000Y-112058750D03*
X156600000Y-113783750D03*
%TD*%
D26*
%TO.C,C17*%
X138037500Y-71298036D03*
X139762500Y-71298036D03*
%TD*%
D15*
%TO.C,CONTENT_8*%
X131465000Y-102538750D03*
D16*
X134965000Y-102538750D03*
%TD*%
D26*
%TO.C,C19*%
X138037500Y-83812321D03*
X139762500Y-83812321D03*
%TD*%
D21*
%TO.C,R22*%
X161975000Y-117683750D03*
X161975000Y-115858750D03*
%TD*%
D32*
%TO.C,C27*%
X168400000Y-110121250D03*
X168400000Y-111846250D03*
%TD*%
%TO.C,C23*%
X168400000Y-62058750D03*
X168400000Y-63783750D03*
%TD*%
D33*
%TO.C,D4*%
X140125000Y-108400000D03*
X138075000Y-108400000D03*
%TD*%
D10*
%TO.C,R32*%
X168400000Y-59086250D03*
X168400000Y-60281250D03*
%TD*%
D15*
%TO.C,CONTENT_5*%
X131465000Y-83724464D03*
D16*
X134965000Y-83724464D03*
%TD*%
D14*
%TO.C,R28*%
X139045000Y-85512321D03*
X137850000Y-85512321D03*
%TD*%
D33*
%TO.C,D3*%
X140125000Y-106160000D03*
X138075000Y-106160000D03*
%TD*%
D34*
%TO.C,R6*%
X161562500Y-107618750D03*
X162757500Y-107618750D03*
%TD*%
D10*
%TO.C,R36*%
X168400000Y-107083750D03*
X168400000Y-108278750D03*
%TD*%
D32*
%TO.C,C12*%
X155853750Y-128071250D03*
X155853750Y-129796250D03*
%TD*%
D12*
%TO.C,C7*%
X160980000Y-134802500D03*
X160980000Y-133077500D03*
%TD*%
D35*
%TO.C,L1*%
X163980000Y-122360000D03*
X161480000Y-122360000D03*
%TD*%
D26*
%TO.C,C15*%
X138037500Y-58783750D03*
X139762500Y-58783750D03*
%TD*%
D36*
%TO.C,J1*%
X158300000Y-137803750D03*
D37*
X160320000Y-137803750D03*
D38*
X161550000Y-137803750D03*
D36*
X159300000Y-137803750D03*
D37*
X157280000Y-137803750D03*
D38*
X156050000Y-137803750D03*
%TD*%
D20*
%TO.C,R23*%
X163625000Y-115858750D03*
X163625000Y-117683750D03*
%TD*%
D14*
%TO.C,R29*%
X139045000Y-91769464D03*
X137850000Y-91769464D03*
%TD*%
D26*
%TO.C,C10*%
X161837500Y-106183750D03*
X163562500Y-106183750D03*
%TD*%
D32*
%TO.C,C24*%
X168400000Y-74074375D03*
X168400000Y-75799375D03*
%TD*%
D15*
%TO.C,CONTENT_3*%
X131465000Y-71181607D03*
D16*
X134965000Y-71181607D03*
%TD*%
D32*
%TO.C,C25*%
X168400000Y-86090000D03*
X168400000Y-87815000D03*
%TD*%
D39*
%TO.C,R10*%
X134450000Y-108400000D03*
X136275000Y-108400000D03*
%TD*%
D14*
%TO.C,R31*%
X138997500Y-104283750D03*
X137802500Y-104283750D03*
%TD*%
D32*
%TO.C,C1*%
X154176875Y-128071250D03*
X154176875Y-129796250D03*
%TD*%
D17*
%TO.C,R11*%
X154500000Y-112001250D03*
X152675000Y-112001250D03*
%TD*%
D18*
%TO.C,D1*%
X147300000Y-140658750D03*
X147300000Y-142708750D03*
%TD*%
D12*
%TO.C,C14*%
X153450000Y-123546250D03*
X153450000Y-121821250D03*
%TD*%
D13*
%TO.C,C3*%
X148287500Y-100471250D03*
X146562500Y-100471250D03*
%TD*%
D15*
%TO.C,CONTENT_4*%
X131465000Y-77453036D03*
D16*
X134965000Y-77453036D03*
%TD*%
D26*
%TO.C,C22*%
X138037500Y-102583750D03*
X139762500Y-102583750D03*
%TD*%
D20*
%TO.C,R3*%
X152500000Y-128021250D03*
X152500000Y-129846250D03*
%TD*%
D26*
%TO.C,C16*%
X138037500Y-65040893D03*
X139762500Y-65040893D03*
%TD*%
%TO.C,C11*%
X161762500Y-129883750D03*
X163487500Y-129883750D03*
%TD*%
D15*
%TO.C,CONTENT_1*%
X131465000Y-58638750D03*
D16*
X134965000Y-58638750D03*
%TD*%
D10*
%TO.C,R34*%
X168400000Y-83085000D03*
X168400000Y-84280000D03*
%TD*%
D14*
%TO.C,R27*%
X139045000Y-79255179D03*
X137850000Y-79255179D03*
%TD*%
D26*
%TO.C,C21*%
X138037500Y-96326607D03*
X139762500Y-96326607D03*
%TD*%
D10*
%TO.C,R19*%
X157270625Y-127796250D03*
X157270625Y-128991250D03*
%TD*%
%TO.C,R35*%
X168300000Y-92986250D03*
X168300000Y-94181250D03*
%TD*%
D14*
%TO.C,R25*%
X139045000Y-66740893D03*
X137850000Y-66740893D03*
%TD*%
D15*
%TO.C,CONTENT_7*%
X131465000Y-96267321D03*
D16*
X134965000Y-96267321D03*
%TD*%
D14*
%TO.C,R24*%
X139045000Y-60483750D03*
X137850000Y-60483750D03*
%TD*%
D21*
%TO.C,R2*%
X149600000Y-137808750D03*
X149600000Y-135983750D03*
%TD*%
D20*
%TO.C,R17*%
X158687500Y-128021250D03*
X158687500Y-129846250D03*
%TD*%
D26*
%TO.C,C6*%
X159837500Y-90583750D03*
X161562500Y-90583750D03*
%TD*%
M02*
